<svg width="180" height="180" viewBox="0 0 180 180" fill="none" xmlns="http://www.w3.org/2000/svg">
<g clip-path="url(#clip0_3388_593)">
<path d="M56.0277 117.046H148.179C148.832 117.046 149.459 117.305 149.921 117.767C150.383 118.229 150.642 118.855 150.642 119.508C150.642 120.162 150.383 120.788 149.921 121.25C149.459 121.712 148.832 121.971 148.179 121.971H56.0277C55.7043 121.971 55.3841 121.907 55.0853 121.784C54.7865 121.66 54.515 121.478 54.2863 121.25C54.0577 121.021 53.8763 120.75 53.7525 120.451C53.6287 120.152 53.565 119.832 53.565 119.508C53.565 119.185 53.6287 118.865 53.7525 118.566C53.8763 118.267 54.0577 117.996 54.2863 117.767C54.515 117.538 54.7865 117.357 55.0853 117.233C55.3841 117.109 55.7043 117.046 56.0277 117.046ZM148.179 135.503H56.0277C55.3746 135.503 54.7482 135.762 54.2863 136.224C53.8245 136.686 53.565 137.312 53.565 137.965C53.565 138.619 53.8245 139.245 54.2863 139.707C54.7482 140.169 55.3746 140.428 56.0277 140.428H148.179C148.832 140.428 149.459 140.169 149.921 139.707C150.383 139.245 150.642 138.619 150.642 137.965C150.642 137.312 150.383 136.686 149.921 136.224C149.459 135.762 148.832 135.503 148.179 135.503ZM39.8629 66.4014H32.3577V73.3771H39.8618C40.7869 73.3771 41.674 73.0096 42.3281 72.3555C42.9822 71.7014 43.3497 70.8143 43.3497 69.8892C43.3497 68.9642 42.9822 68.077 42.3281 67.4229C41.674 66.7688 40.7869 66.4014 39.8618 66.4014H39.8629ZM148.179 153.96H56.0277C55.7046 153.96 55.3846 154.023 55.086 154.147C54.7874 154.271 54.5161 154.452 54.2876 154.681C54.0591 154.909 53.8778 155.18 53.7541 155.479C53.6305 155.778 53.5668 156.098 53.5668 156.421C53.5668 156.744 53.6305 157.064 53.7541 157.362C53.8778 157.661 54.0591 157.932 54.2876 158.161C54.5161 158.389 54.7874 158.571 55.086 158.694C55.3846 158.818 55.7046 158.882 56.0277 158.882H148.179C148.832 158.882 149.458 158.622 149.919 158.161C150.381 157.699 150.64 157.073 150.64 156.421C150.64 155.768 150.381 155.142 149.919 154.681C149.458 154.219 148.832 153.96 148.179 153.96ZM66.7792 79.7854V71.8945C66.7762 70.4374 66.1954 69.0409 65.1642 68.0115C64.1329 66.982 62.7355 66.4036 61.2783 66.4031H55.7771V85.288H61.2783C62.737 85.2863 64.1355 84.706 65.1668 83.6744C66.1981 82.6427 66.778 81.2441 66.7792 79.7854ZM169.038 52.8469V164.9C169.031 168.905 167.437 172.744 164.605 175.574C161.772 178.405 157.932 179.997 153.927 180H50.2762C46.2719 179.997 42.4325 178.405 39.6003 175.574C36.7682 172.743 35.1747 168.905 35.1695 164.9V101.303H16.2133C14.8209 101.301 13.4861 100.747 12.5015 99.7622C11.5169 98.7776 10.9629 97.4428 10.9609 96.0504V55.6383C10.9622 54.2457 11.516 52.9105 12.5008 51.9258C13.4855 50.941 14.8207 50.3872 16.2133 50.3859H35.1695V15.1066C35.1739 11.1015 36.7669 7.26156 39.599 4.42946C42.4311 1.59737 46.271 0.00437365 50.2762 0L116.191 0C116.843 0.00133507 117.469 0.260371 117.931 0.720703L168.317 51.1066C168.777 51.569 169.036 52.1945 169.038 52.8469ZM39.8618 78.3C40.9664 78.3 42.0602 78.0824 43.0806 77.6597C44.1011 77.237 45.0284 76.6175 45.8094 75.8364C46.5905 75.0554 47.21 74.1282 47.6327 73.1077C48.0554 72.0872 48.273 70.9934 48.273 69.8889C48.273 68.7843 48.0554 67.6906 47.6327 66.6701C47.21 65.6496 46.5905 64.7223 45.8094 63.9413C45.0284 63.1603 44.1011 62.5407 43.0806 62.118C42.0602 61.6953 40.9664 61.4777 39.8618 61.4777H29.8961C29.2434 61.4777 28.6175 61.737 28.1559 62.1985C27.6944 62.66 27.4352 63.286 27.4352 63.9387V87.7468C27.4352 88.07 27.4988 88.39 27.6225 88.6886C27.7462 88.9872 27.9274 89.2585 28.1559 89.487C28.3845 89.7155 28.6558 89.8968 28.9543 90.0204C29.2529 90.1441 29.5729 90.2078 29.8961 90.2078C30.2193 90.2078 30.5393 90.1441 30.8379 90.0204C31.1364 89.8968 31.4077 89.7155 31.6362 89.487C31.8648 89.2585 32.046 88.9872 32.1697 88.6886C32.2934 88.39 32.357 88.07 32.357 87.7468V78.3003L39.8618 78.3ZM164.116 55.3113H123.215C120.699 55.3082 118.288 54.3075 116.509 52.5287C114.73 50.7499 113.729 48.3382 113.726 45.8227V4.92188H50.2762C47.5761 4.92541 44.9876 5.99958 43.0784 7.90883C41.1691 9.81808 40.0949 12.4066 40.0914 15.1066V50.3859H106.343C107.736 50.3872 109.071 50.941 110.056 51.9258C111.041 52.9105 111.594 54.2457 111.596 55.6383V96.0504C111.594 97.4428 111.04 98.7776 110.055 99.7622C109.071 100.747 107.736 101.301 106.343 101.303H40.0914V164.9C40.0961 167.599 41.1708 170.187 43.08 172.094C44.9892 174.002 47.5771 175.075 50.2762 175.078H153.927C156.627 175.076 159.216 174.004 161.126 172.096C163.036 170.188 164.111 167.6 164.116 164.9V55.3113ZM53.3154 90.2109H61.2783C64.042 90.2077 66.6915 89.1084 68.6456 87.1541C70.5998 85.1999 71.699 82.5504 71.7021 79.7868V71.8945C71.6979 69.1321 70.598 66.4842 68.6438 64.5317C66.6896 62.5793 64.0407 61.4817 61.2783 61.4798H53.3154C52.6627 61.4798 52.0368 61.7391 51.5753 62.2006C51.1138 62.6622 50.8545 63.2881 50.8545 63.9408V87.7489C50.8544 88.0722 50.9179 88.3923 51.0415 88.691C51.1651 88.9897 51.3464 89.2611 51.5749 89.4898C51.8034 89.7184 52.0748 89.8998 52.3734 90.0235C52.6721 90.1472 52.9922 90.2109 53.3154 90.2109ZM79.2062 73.3771V66.4014H92.6598C93.3125 66.4014 93.9385 66.1421 94.4 65.6806C94.8615 65.2191 95.1208 64.5931 95.1208 63.9404C95.1208 63.2877 94.8615 62.6618 94.4 62.2003C93.9385 61.7388 93.3125 61.4795 92.6598 61.4795H76.7453C76.0926 61.4795 75.4667 61.7388 75.0052 62.2003C74.5437 62.6618 74.2844 63.2877 74.2844 63.9404V87.7486C74.2844 88.4013 74.5437 89.0272 75.0052 89.4887C75.4667 89.9503 76.0926 90.2095 76.7453 90.2095C77.398 90.2095 78.0239 89.9503 78.4855 89.4887C78.947 89.0272 79.2062 88.4013 79.2062 87.7486V78.3003H90.2981C90.9507 78.3003 91.5767 78.0411 92.0382 77.5796C92.4997 77.118 92.759 76.4921 92.759 75.8394C92.759 75.1867 92.4997 74.5608 92.0382 74.0993C91.5767 73.6378 90.9507 73.3785 90.2981 73.3785L79.2062 73.3771Z" fill="url(#paint0_linear_3388_593)"/>
</g>
<defs>
<linearGradient id="paint0_linear_3388_593" x1="10.9609" y1="0" x2="170.095" y2="0.940129" gradientUnits="userSpaceOnUse">
<stop stop-color="#AE6BFF"/>
<stop offset="1" stop-color="#EF87DF"/>
</linearGradient>
<clipPath id="clip0_3388_593">
<rect width="180" height="180" fill="white"/>
</clipPath>
</defs>
</svg>
