<svg width="60" height="60" viewBox="0 0 60 60" fill="none" xmlns="http://www.w3.org/2000/svg">
<g clip-path="url(#clip0_1387_9461)">
<path d="M30 0.890625C13.9219 0.890625 0.890625 13.9219 0.890625 30C0.890625 46.0781 13.9219 59.1094 30 59.1094C46.0781 59.1094 59.1094 46.0781 59.1094 30C59.1094 13.9219 46.0781 0.890625 30 0.890625ZM24.9375 42.3281C25.2188 42.6094 25.4062 42.9844 25.4062 43.4062C25.4062 43.8281 25.2656 44.2031 24.9375 44.4844C24.6562 44.7656 24.2344 44.9531 23.8594 44.9531C23.4844 44.9531 23.0625 44.8125 22.7812 44.4844L20.5781 42.2812L18.3281 44.5312C17.7187 45.1406 16.7344 45.1406 16.1719 44.5312C15.8906 44.25 15.7031 43.875 15.7031 43.4531C15.7031 43.0312 15.8437 42.6562 16.1719 42.375L18.375 40.1719L16.1719 37.9688C15.5625 37.3594 15.5625 36.375 16.1719 35.7656C16.7812 35.1562 17.7656 35.1562 18.3281 35.7656L20.5312 37.9688L22.7344 35.7656C23.3438 35.1562 24.3281 35.1562 24.9375 35.7656C25.5469 36.375 25.5469 37.3594 24.9375 37.9688L22.7344 40.1719L24.9375 42.3281ZM25.2187 22.7812H22.0781V25.9219C22.0781 26.7656 21.375 27.4687 20.5312 27.4687C19.6875 27.4687 18.9844 26.7656 18.9844 25.9219V22.7812H15.8438C15 22.7812 14.2969 22.0781 14.2969 21.2344C14.2969 20.3906 15 19.6875 15.8438 19.6875H18.9844V16.5469C18.9844 15.7031 19.6875 15 20.5312 15C21.375 15 22.0781 15.7031 22.0781 16.5469V19.6875H25.2187C26.0625 19.6875 26.7656 20.3906 26.7656 21.2344C26.7656 22.0781 26.1094 22.7812 25.2187 22.7812ZM44.1094 44.0156H34.7344C33.8906 44.0156 33.1875 43.3125 33.1875 42.4688C33.1875 41.625 33.8906 40.9219 34.7344 40.9219H44.1094C44.9531 40.9219 45.6562 41.625 45.6562 42.4688C45.6562 43.3125 44.9531 44.0156 44.1094 44.0156ZM44.1094 39.3281H34.7344C33.8906 39.3281 33.1875 38.625 33.1875 37.7812C33.1875 36.9375 33.8906 36.2344 34.7344 36.2344H44.1094C44.9531 36.2344 45.6562 36.9375 45.6562 37.7812C45.6562 38.625 44.9531 39.3281 44.1094 39.3281ZM44.1094 22.7812H34.7344C33.8906 22.7812 33.1875 22.0781 33.1875 21.2344C33.1875 20.3906 33.8906 19.6875 34.7344 19.6875H44.1094C44.9531 19.6875 45.6562 20.3906 45.6562 21.2344C45.6562 22.0781 44.9531 22.7812 44.1094 22.7812Z" fill="url(#paint0_linear_1387_9461)"/>
</g>
<defs>
<linearGradient id="paint0_linear_1387_9461" x1="0.890625" y1="0.890625" x2="59.4984" y2="1.28489" gradientUnits="userSpaceOnUse">
<stop stop-color="#AE6BFF"/>
<stop offset="1" stop-color="#EF87DF"/>
</linearGradient>
<clipPath id="clip0_1387_9461">
<rect width="60" height="60" fill="white"/>
</clipPath>
</defs>
</svg>
