<svg width="74" height="74" viewBox="0 0 74 74" fill="none" xmlns="http://www.w3.org/2000/svg">
<circle cx="37" cy="37" r="37" fill="url(#paint0_linear_1173_98)"/>
<path d="M50.338 42.8898L42.3512 40.0872C42.0664 39.9902 41.7493 40.1002 41.5874 40.3526L36.9986 47.6534L32.4032 40.3526C32.2414 40.1002 31.9243 39.9902 31.6395 40.0872L23.6138 42.9027C19.7758 44.482 17.2969 48.1906 17.2969 52.3523V57.7114C17.2969 58.0673 17.5881 58.3586 17.9441 58.3586H24.0993V51.2973C24.0993 50.8054 24.3905 50.4041 24.7465 50.4041C25.1025 50.4041 25.3937 50.8054 25.3937 51.2973V58.3586H48.5969V51.2973C48.5969 50.8054 48.8817 50.4041 49.2442 50.4041C49.6002 50.4041 49.8914 50.8054 49.8914 51.2973V58.3586H56.0466C56.4025 58.3586 56.6938 58.0673 56.6938 57.7114V52.3523C56.6938 48.1906 54.2149 44.482 50.338 42.8898Z" fill="white"/>
<path d="M25.1969 30.6314L27.4816 30.8903C27.7082 31.6606 28.0253 32.3919 28.4331 33.078L27.0609 34.9291C26.8668 35.188 26.8991 35.5569 27.1321 35.7769L29.611 38.1782C29.844 38.3982 30.2065 38.4176 30.4654 38.217L32.2646 36.7866C32.9637 37.1685 33.708 37.4597 34.4846 37.6604L34.8212 39.9386C34.8665 40.2558 35.1448 40.4888 35.462 40.4888C35.4684 40.4888 35.4684 40.4888 35.4749 40.4888L38.9182 40.4305C39.2483 40.424 39.5136 40.1781 39.5525 39.8545L39.8114 37.5698C40.5816 37.3432 41.313 37.0261 41.999 36.6183L43.8501 37.9904C44.109 38.1846 44.4779 38.1523 44.698 37.9193L47.0992 35.4404C47.3257 35.2074 47.3387 34.8449 47.138 34.586L45.7076 32.7867C46.0895 32.0877 46.3807 31.3434 46.5814 30.5667L48.8596 30.2302C49.1768 30.1848 49.4162 29.9065 49.4098 29.5765L49.3515 26.1332C49.3451 25.8031 49.0991 25.5377 48.7755 25.4989L46.4908 25.24C46.2642 24.4698 45.9471 23.7385 45.5393 23.0524L46.9115 21.2013C47.1056 20.9424 47.0733 20.5735 46.8403 20.3534L44.3614 17.9522C44.1284 17.7321 43.7595 17.7127 43.507 17.9134L41.7078 19.3437C41.0087 18.9619 40.2644 18.6706 39.4878 18.47L39.1512 16.1917C39.0994 15.8746 38.8599 15.6416 38.4975 15.6416L35.0542 15.6998C34.7241 15.7063 34.4588 15.9523 34.4199 16.2759L34.161 18.5606C33.3908 18.7871 32.6594 19.1043 31.9734 19.512L30.1223 18.1399C29.8634 17.9457 29.4945 17.9781 29.2744 18.2111L26.8732 20.69C26.6467 20.923 26.6337 21.2854 26.8344 21.5443L28.2648 23.3436C27.8829 24.0426 27.5917 24.787 27.391 25.5636L25.1128 25.9002C24.7956 25.952 24.5561 26.2303 24.5626 26.5539L24.6209 29.9972C24.6273 30.3273 24.8733 30.5926 25.1969 30.6314ZM31.97 27.6909C32.0522 26.5254 32.5487 25.4155 33.3675 24.5679C34.3017 23.6015 35.556 23.0566 36.8998 23.0339C38.2584 22.9988 39.5156 23.513 40.482 24.4468C41.4484 25.381 41.9932 26.6354 42.016 27.9791C42.0388 29.3226 41.5369 30.5949 40.603 31.561C39.7839 32.4086 38.691 32.9424 37.5262 33.0647C37.3422 33.0846 37.1586 33.0947 36.9763 33.0947C35.6809 33.0947 34.4329 32.5947 33.4886 31.6817C32.4112 30.6407 31.8575 29.186 31.97 27.6909Z" fill="white"/>
<defs>
<linearGradient id="paint0_linear_1173_98" x1="0" y1="0" x2="74.4944" y2="0.501132" gradientUnits="userSpaceOnUse">
<stop stop-color="#AE6BFF"/>
<stop offset="1" stop-color="#EF87DF"/>
</linearGradient>
</defs>
</svg>
