<svg width="74" height="74" viewBox="0 0 74 74" fill="none" xmlns="http://www.w3.org/2000/svg">
<circle cx="37" cy="37" r="37" fill="url(#paint0_linear_1173_82)"/>
<path d="M29.4126 58.2799H23.8798C22.9668 58.2799 22.2117 57.5248 22.2117 56.6049V43.4593H28.2456V47.7359C28.2456 50.6122 29.1518 53.3717 30.7924 55.6645C31.5749 56.7491 30.7581 58.2799 29.4126 58.2799ZM18.9991 29.6615V39.4847C18.0261 39.0829 17.1942 38.4013 16.6088 37.5264C16.0235 36.6514 15.711 35.6224 15.7109 34.5697C15.7109 32.3593 17.0701 30.4578 18.9991 29.6615ZM29.3646 27.0598V42.0864H22.2941C21.23 42.0864 20.372 41.2283 20.372 40.1643V28.9819C20.372 27.9179 21.23 27.0598 22.2941 27.0598H29.3646ZM53.6308 17.1556V51.9919C53.6308 53.056 52.5064 53.7527 51.5618 53.2736L30.7395 42.0857V27.0612L51.5618 15.8733C52.5064 15.3942 53.6301 16.091 53.6301 17.155L53.6308 17.1556ZM58.2712 34.5772C58.2712 37.1514 56.9738 39.4167 55.0037 40.7691V28.3778C56.9738 29.7302 58.2712 32.0023 58.2712 34.5765V34.5772Z" fill="white"/>
<defs>
<linearGradient id="paint0_linear_1173_82" x1="0" y1="0" x2="74.4944" y2="0.501132" gradientUnits="userSpaceOnUse">
<stop stop-color="#AE6BFF"/>
<stop offset="1" stop-color="#EF87DF"/>
</linearGradient>
</defs>
</svg>
