<svg width="74" height="74" viewBox="0 0 74 74" fill="none" xmlns="http://www.w3.org/2000/svg">
<circle cx="37" cy="37" r="37" fill="url(#paint0_linear_1173_134)"/>
<path fill-rule="evenodd" clip-rule="evenodd" d="M46.4661 50.8944C47.7937 50.8983 49.0655 51.4232 50.0029 52.354C50.9402 53.2849 51.4666 54.5457 51.4666 55.8601V57.222C51.4666 57.6884 51.2794 58.1356 50.9464 58.4654C50.6133 58.7952 50.1616 58.9804 49.6906 58.9804H24.3073C23.8363 58.9804 23.3846 58.7952 23.0515 58.4654C22.7185 58.1356 22.5313 57.6884 22.5313 57.222V55.8601C22.5315 54.5431 23.06 53.28 24.0006 52.3488C24.9413 51.4176 26.217 50.8944 27.5472 50.8944H46.4661ZM33.0564 21.767C33.2584 21.3806 33.5172 21.0259 33.8244 20.7147V17.8586C33.8243 17.4858 33.8984 17.1167 34.0425 16.7723C34.1865 16.4278 34.3977 16.1149 34.6639 15.8513C34.9302 15.5877 35.2462 15.3786 35.5941 15.236C35.942 15.0933 36.3148 15.02 36.6913 15.02H37.3066C37.6831 15.02 38.0559 15.0933 38.4038 15.236C38.7517 15.3786 39.0677 15.5877 39.334 15.8513C39.6002 16.1149 39.8114 16.4278 39.9554 16.7723C40.0995 17.1167 40.1736 17.4858 40.1736 17.8586V20.7147C40.4805 21.0261 40.7393 21.3807 40.9415 21.767L41.0326 21.9613C41.296 22.5326 41.432 23.1535 41.4313 23.7816C41.4319 24.3519 41.3199 24.9168 41.1014 25.4445C41.0688 25.5234 41.0013 25.6777 41.0013 25.6777C40.7916 26.11 40.512 26.5055 40.1736 26.8485V49.3244H33.8244V26.8485C33.486 26.5054 33.2064 26.1099 32.9966 25.6777C32.9966 25.6777 32.9613 25.5938 32.9422 25.5512C32.6938 24.9937 32.5659 24.3909 32.5667 23.7816C32.5667 23.1065 32.7211 22.4668 32.9966 21.8953C33.0175 21.8523 33.0564 21.767 33.0564 21.767ZM42.9517 22.9024H57.2136C57.7038 22.9024 58.1021 23.2962 58.1021 23.7816C58.1021 24.267 57.7038 24.6608 57.2136 24.6608H53.1642V31.0651L56.5898 37.8494H57.2136C57.4469 37.8493 57.6779 37.8948 57.8934 37.9831C58.109 38.0714 58.3048 38.201 58.4698 38.3642C58.6347 38.5275 58.7656 38.7214 58.8549 38.9348C58.9441 39.1481 58.9901 39.3768 58.9901 39.6078C58.9901 43.2794 55.984 46.2552 52.2757 46.2552C48.5679 46.2552 45.5618 43.2794 45.5618 39.6078C45.5618 39.3769 45.6077 39.1482 45.697 38.9349C45.7863 38.7215 45.9171 38.5277 46.082 38.3644C46.2469 38.2011 46.4427 38.0716 46.6582 37.9832C46.8736 37.8949 47.1046 37.8494 47.3378 37.8494H47.9621L51.3877 31.0651V24.6608H42.9517C43.0392 24.0779 43.0392 23.4853 42.9517 22.9024ZM31.0462 22.9024C30.9587 23.4853 30.9587 24.0779 31.0462 24.6608H22.6102V31.0651L26.0358 37.8494H26.6601C27.1311 37.8494 27.5829 38.0346 27.9159 38.3644C28.249 38.6942 28.4361 39.1414 28.4361 39.6078C28.4361 43.2794 25.43 46.2552 21.7222 46.2552C18.0139 46.2552 15.0078 43.2794 15.0078 39.6078C15.0078 39.3768 15.0538 39.1481 15.143 38.9348C15.2323 38.7214 15.3632 38.5275 15.5282 38.3642C15.6931 38.201 15.889 38.0714 16.1045 37.9831C16.32 37.8948 16.551 37.8493 16.7843 37.8494H17.4081L20.8337 31.0651V24.6608H16.7843C16.5487 24.6608 16.3228 24.5682 16.1562 24.4033C15.9896 24.2384 15.8959 24.0148 15.8958 23.7816C15.8958 23.2962 16.2941 22.9024 16.7843 22.9024H31.0462ZM49.9474 37.8494H54.6045L52.2757 33.2389L49.9474 37.8494ZM19.3934 37.8494H24.0505L21.7222 33.2389L19.3934 37.8494ZM36.999 21.846C37.5174 21.8461 38.0146 22.0501 38.3812 22.413C38.7478 22.776 38.9538 23.2683 38.9539 23.7816C38.9538 24.2949 38.7478 24.7872 38.3812 25.1501C38.0146 25.5131 37.5174 25.7171 36.999 25.7172C36.4805 25.7171 35.9833 25.5131 35.6167 25.1501C35.2501 24.7872 35.0441 24.2949 35.044 23.7816C35.0441 23.2683 35.2501 22.776 35.6167 22.413C35.9833 22.0501 36.4805 21.8461 36.999 21.846Z" fill="white"/>
<defs>
<linearGradient id="paint0_linear_1173_134" x1="0" y1="0" x2="74.4944" y2="0.501132" gradientUnits="userSpaceOnUse">
<stop stop-color="#AE6BFF"/>
<stop offset="1" stop-color="#EF87DF"/>
</linearGradient>
</defs>
</svg>
