<svg width="74" height="74" viewBox="0 0 74 74" fill="none" xmlns="http://www.w3.org/2000/svg">
<circle cx="37" cy="37" r="37" fill="url(#paint0_linear_1173_30)"/>
<g clip-path="url(#clip0_1173_30)">
<path d="M41.2744 16.109C36.1775 13.1515 29.5703 15.1651 27.1162 20.7025C25.2285 24.8556 26.5499 29.8896 30.1996 32.6583C34.1009 35.6158 39.1979 35.2382 42.6587 32.4066C42.9734 32.1549 43.4139 32.1549 43.7914 32.4066L52.9156 39.1396C54.2999 40.1464 56.2506 39.7688 57.1315 38.2586L58.3271 36.245C59.2081 34.7348 58.5788 32.8471 57.0057 32.1549L46.686 27.4984C46.3084 27.3097 46.0567 26.9321 46.1826 26.5546C46.8118 22.5273 44.987 18.3114 41.2744 16.109ZM42.7846 28.5682C40.6451 32.2178 35.9887 33.4134 32.339 31.2739C28.6894 29.1345 27.4938 24.478 29.6332 20.8284C31.7727 17.1787 36.4292 15.9831 40.0788 18.1226C43.7285 20.262 44.9241 24.9814 42.7846 28.5682ZM16.356 59.2757C15.7268 59.2757 15.2863 58.7093 15.4121 58.143C15.9156 54.8709 16.419 51.7246 16.9853 48.6413C17.2999 46.9423 18.3696 45.7467 20.1315 45.1804C22.1451 44.4882 24.0329 43.6073 26.0465 42.8522C27.8084 42.16 29.5074 41.4049 30.9547 40.0835C31.7727 39.3284 32.9683 39.3913 33.7863 40.1464C34.7302 41.0903 35.6111 42.0342 36.8696 43.2927C37.9394 42.0971 38.8832 41.0273 39.8271 39.9576C40.5193 39.2025 41.4002 39.0767 42.1553 39.7688C44.5465 42.2229 47.8186 42.7893 50.7132 44.1736C51.5941 44.6141 52.538 44.9287 53.4819 45.1804C55.055 45.6838 55.9989 46.7535 56.2506 48.2008C56.8169 50.9695 57.1945 53.7382 57.6349 56.5069C57.6979 57.0103 57.7608 57.5767 57.8237 58.143C57.8866 58.7093 57.3832 59.2127 56.8169 59.2127H16.356V59.2757Z" fill="white"/>
</g>
<defs>
<linearGradient id="paint0_linear_1173_30" x1="0" y1="0" x2="74.4944" y2="0.501132" gradientUnits="userSpaceOnUse">
<stop stop-color="#AE6BFF"/>
<stop offset="1" stop-color="#EF87DF"/>
</linearGradient>
<clipPath id="clip0_1173_30">
<rect width="45.3061" height="45.3061" fill="white" transform="translate(14.3438 14.3472)"/>
</clipPath>
</defs>
</svg>
