<svg width="74" height="74" viewBox="0 0 74 74" fill="none" xmlns="http://www.w3.org/2000/svg">
<circle cx="37" cy="37" r="37" fill="url(#paint0_linear_1173_123)"/>
<path d="M51.1923 15.6797H22.8094C21.3436 15.6797 20.2109 16.879 20.2109 18.2781V42.93C20.2109 44.3958 21.4102 45.5284 22.8094 45.5284H51.259C52.7247 45.5284 53.8574 44.3292 53.8574 42.93V18.2781C53.8574 16.879 52.6581 15.6797 51.1923 15.6797ZM22.5429 18.2781C22.5429 18.1449 22.6095 18.0782 22.7428 18.0782H51.1923C51.3256 18.0782 51.3922 18.1449 51.3922 18.2781V42.93C51.3922 43.0632 51.3256 43.1299 51.1923 43.1299H22.8094C22.6761 43.1299 22.6095 43.0632 22.6095 42.93V18.2781H22.5429Z" fill="white"/>
<path d="M34.999 54.5229L34.1328 58.3207H39.7961L38.7967 54.5229H34.999Z" fill="white"/>
<path d="M56.4517 55.589L53.5201 47.5938C53.2536 46.7942 52.4541 46.2612 51.5879 46.2612H22.3388C21.4727 46.2612 20.6731 46.7942 20.4066 47.5938L17.4751 55.589C17.0087 56.9215 18.0081 58.3207 19.4739 58.3207H32.9324L33.9985 53.79C34.0651 53.5235 34.3316 53.3237 34.5981 53.3237H39.3286C39.5951 53.3237 39.8616 53.5235 39.9282 53.79L41.1942 58.3207H54.7194C55.9186 58.3207 56.9847 56.9215 56.4517 55.589Z" fill="white"/>
<path d="M44.7963 30.6037C44.9962 30.3372 45.196 30.1373 45.3959 29.8708C46.8617 28.0053 47.3281 26.273 46.5952 25.0737C46.1954 24.4074 45.3293 23.6079 43.1972 23.6079C42.4643 23.6079 41.7314 23.7412 40.8653 23.8744C39.9992 21.2093 38.6 19.4771 36.9343 19.4771C35.2687 19.4771 33.8695 21.1427 33.0034 23.8744C32.2038 23.6745 31.4043 23.6079 30.6714 23.6079C28.5394 23.6079 27.6732 24.4074 27.2735 25.0737C26.4739 26.4728 27.2068 28.5383 29.0724 30.6037C27.2068 32.6691 26.4739 34.7346 27.2735 36.1337C27.6732 36.8 28.5394 37.5995 30.6714 37.5995C31.4043 37.5995 32.1372 37.4662 33.0034 37.333C33.8695 39.9981 35.2687 41.7304 36.9343 41.7304C38.6 41.7304 39.9992 40.0647 40.8653 37.333C41.6648 37.5329 42.4643 37.5995 43.1972 37.5995C45.3293 37.5995 46.1954 36.8 46.5952 36.1337C47.3281 34.9344 46.8617 33.2021 45.3959 31.3366C45.196 31.1367 44.9962 30.8702 44.7963 30.6037ZM30.7381 36.4668C29.5388 36.4668 28.7393 36.1337 28.4061 35.6007C27.9397 34.7346 28.5394 33.2021 30.0052 31.5365C30.6714 32.1361 31.4043 32.8024 32.2705 33.402C32.4037 34.4014 32.537 35.4008 32.7369 36.267C32.0706 36.4002 31.4043 36.4668 30.7381 36.4668ZM32.1372 31.7364C31.6708 31.3366 31.2711 31.0035 30.8713 30.6037C31.2711 30.2039 31.6708 29.8708 32.1372 29.471C32.1372 29.8042 32.1372 30.2039 32.1372 30.6037C32.1372 31.0035 32.1372 31.4032 32.1372 31.7364ZM32.2705 27.9386C31.4043 28.5383 30.6714 29.1379 30.0052 29.8042C28.4727 28.0719 27.8731 26.5395 28.4061 25.74C28.7393 25.2069 29.5388 24.8738 30.7381 24.8738C31.3377 24.8738 32.004 24.9404 32.7369 25.0737C32.537 25.9398 32.4037 26.8726 32.2705 27.9386ZM40.3989 27.0059C40.0658 26.806 39.7327 26.6061 39.4661 26.4062C39.133 26.2063 38.7999 26.0731 38.4667 25.8732C38.9998 25.6733 39.5328 25.4734 40.0658 25.3402C40.199 25.8732 40.3323 26.4062 40.3989 27.0059ZM37.001 20.743C38.0004 20.743 38.9998 22.0089 39.7326 24.2075C38.8665 24.474 37.9337 24.8072 37.001 25.2069C36.0682 24.8072 35.1354 24.474 34.2693 24.2075C35.0022 22.0089 36.0016 20.743 37.001 20.743ZM33.9361 25.3402C34.4691 25.4734 35.0022 25.6733 35.5352 25.8732C35.202 26.0731 34.8689 26.2063 34.5358 26.4062C34.2026 26.6061 33.8695 26.806 33.603 27.0059C33.6696 26.4062 33.8029 25.8732 33.9361 25.3402ZM33.603 34.2682C33.9361 34.468 34.2026 34.6679 34.5358 34.8678C34.8689 35.0677 35.202 35.2009 35.5352 35.4008C35.0022 35.6007 34.4691 35.8006 33.9361 35.9338C33.8029 35.4008 33.6696 34.8678 33.603 34.2682ZM37.001 40.5311C36.0016 40.5311 35.0022 39.2652 34.2693 37.0665C35.1354 36.8 36.0682 36.4668 37.001 36.0671C37.9337 36.4668 38.8665 36.8 39.7326 37.0665C38.9998 39.2652 38.0004 40.5311 37.001 40.5311ZM40.0658 35.9338C39.5328 35.8006 38.9998 35.6007 38.4667 35.4008C38.7999 35.2009 39.133 35.0677 39.4661 34.8678C39.7993 34.6679 40.1324 34.468 40.3989 34.2682C40.3323 34.8678 40.199 35.4008 40.0658 35.9338ZM40.5988 32.6691C40.0658 33.0689 39.4661 33.402 38.8665 33.8018C38.2669 34.1349 37.6672 34.468 37.0676 34.7346C36.4679 34.468 35.8683 34.1349 35.2687 33.8018C34.669 33.4686 34.0694 33.0689 33.5364 32.6691C33.4697 32.0029 33.4697 31.3366 33.4697 30.6037C33.4697 29.8708 33.4697 29.2045 33.5364 28.5383C34.0694 28.1385 34.669 27.8054 35.2687 27.4056C35.8683 27.0725 36.4679 26.7394 37.0676 26.4728C37.6672 26.7394 38.2669 27.0725 38.8665 27.4056C39.4661 27.7388 40.0658 28.1385 40.5988 28.5383C40.6654 29.2045 40.6654 29.8708 40.6654 30.6037C40.6654 31.3366 40.6654 32.0695 40.5988 32.6691ZM43.2639 24.8072C44.4631 24.8072 45.2627 25.1403 45.5958 25.6733C45.9956 26.4062 45.5958 27.6721 44.4631 29.1379C44.3299 29.3378 44.13 29.5377 43.9301 29.7376C43.2639 29.0713 42.531 28.4716 41.6648 27.872C41.5316 26.8726 41.3983 25.8732 41.1984 25.0071C41.9313 24.8738 42.5976 24.8072 43.2639 24.8072ZM41.8647 29.5377C42.3311 29.9374 42.7309 30.2706 43.1306 30.6703C42.7309 31.0701 42.3311 31.4032 41.8647 31.803C41.8647 31.4698 41.8647 31.0701 41.8647 30.6703C41.8647 30.2706 41.8647 29.8708 41.8647 29.5377ZM45.5958 35.6007C45.2627 36.1337 44.4631 36.4668 43.2639 36.4668C42.6642 36.4668 41.998 36.4002 41.2651 36.267C41.4649 35.4008 41.6648 34.4014 41.7314 33.402C42.531 32.8024 43.3305 32.2027 43.9968 31.5365C44.1966 31.7364 44.3299 31.9362 44.5298 32.1361C45.5958 33.6019 45.9956 34.8678 45.5958 35.6007Z" fill="white"/>
<path d="M39.265 30.6037C39.265 31.8696 38.2656 32.869 36.9997 32.869C35.7338 32.869 34.7344 31.8696 34.7344 30.6037C34.7344 29.3378 35.7338 28.3384 36.9997 28.3384C38.2656 28.3384 39.265 29.4044 39.265 30.6037Z" fill="white"/>
<defs>
<linearGradient id="paint0_linear_1173_123" x1="0" y1="0" x2="74.4944" y2="0.501132" gradientUnits="userSpaceOnUse">
<stop stop-color="#AE6BFF"/>
<stop offset="1" stop-color="#EF87DF"/>
</linearGradient>
</defs>
</svg>
