<svg width="74" height="74" viewBox="0 0 74 74" fill="none" xmlns="http://www.w3.org/2000/svg">
<circle cx="37" cy="37" r="37" fill="url(#paint0_linear_1173_44)"/>
<g clip-path="url(#clip0_1173_44)">
<path d="M24.5088 55.5797L26.5129 56.0916C26.5703 56.1064 26.6293 56.1138 26.6885 56.1137C26.8257 56.1136 26.96 56.0737 27.0749 55.9987C27.1899 55.9237 27.2806 55.8169 27.3359 55.6913L28.199 53.7321C28.9523 53.7296 29.7016 53.6223 30.4254 53.4134L31.8056 55.0494C31.9136 55.1775 32.0635 55.2632 32.2287 55.2912C32.3939 55.3191 32.5636 55.2876 32.7078 55.2022L34.4855 54.148C34.6296 54.0624 34.7386 53.9286 34.7934 53.7703C34.8481 53.612 34.845 53.4394 34.7845 53.2831L34.0106 51.2869C34.541 50.7523 34.9945 50.1464 35.3579 49.4868L37.491 49.6689C37.6581 49.6839 37.8251 49.6388 37.9619 49.5416C38.0987 49.4443 38.1962 49.3015 38.2369 49.1387L38.7488 47.1346C38.7903 46.9722 38.7729 46.8004 38.6996 46.6497C38.6263 46.499 38.5019 46.3792 38.3486 46.3116L36.3894 45.4484C36.3868 44.6951 36.2796 43.9458 36.0707 43.2221L37.7067 41.8419C37.8348 41.7339 37.9205 41.584 37.9485 41.4188C37.9764 41.2536 37.9449 41.0838 37.8595 40.9397L36.8052 39.162C36.7195 39.0181 36.5857 38.9091 36.4274 38.8544C36.2692 38.7997 36.0966 38.8027 35.9404 38.863L33.9442 39.6369C33.4096 39.1064 32.8037 38.653 32.144 38.2895L32.3262 36.1565C32.3404 35.9895 32.2949 35.8229 32.1978 35.6863C32.1007 35.5497 31.9583 35.452 31.7959 35.4105L29.7918 34.8986C29.6295 34.8568 29.4575 34.8742 29.3068 34.9475C29.156 35.0208 29.0362 35.1454 28.9688 35.2989L28.1057 37.2581C27.3524 37.2606 26.6031 37.3679 25.8793 37.5768L24.4991 35.9408C24.3912 35.8126 24.2413 35.7268 24.0761 35.6989C23.9108 35.6709 23.7411 35.7025 23.5969 35.788L21.8192 36.8422C21.6752 36.9278 21.5661 37.0616 21.5114 37.2199C21.4566 37.3782 21.4598 37.5508 21.5202 37.7071L22.2942 39.7032C21.7637 40.2379 21.3102 40.8438 20.9468 41.5034L18.8137 41.3213C18.6467 41.3068 18.48 41.3522 18.3434 41.4494C18.2067 41.5465 18.109 41.689 18.0678 41.8515L17.5559 43.8556C17.5144 44.018 17.5318 44.1898 17.6051 44.3405C17.6784 44.4912 17.8028 44.611 17.9561 44.6786L19.9153 45.5418C19.9179 46.2951 20.0252 47.0444 20.234 47.7681L18.598 49.1483C18.4699 49.2563 18.3842 49.4062 18.3562 49.5714C18.3283 49.7366 18.3598 49.9064 18.4452 50.0505L19.4995 51.8282C19.5852 51.9721 19.719 52.0811 19.8773 52.1358C20.0356 52.1905 20.2081 52.1875 20.3643 52.1272L22.3605 51.3533C22.8952 51.8838 23.501 52.3372 24.1607 52.7007L23.9785 54.8337C23.9643 55.0007 24.0098 55.1673 24.1069 55.3039C24.204 55.4405 24.3464 55.5382 24.5088 55.5797ZM24.3633 44.5272C24.5448 43.8191 24.9214 43.176 25.45 42.6711C25.9787 42.1662 26.6384 41.8196 27.3542 41.6708C28.0699 41.5219 28.8131 41.5768 29.4992 41.8291C30.1854 42.0814 30.7871 42.521 31.2359 43.0981C31.6848 43.6751 31.9628 44.3665 32.0385 45.0936C32.1141 45.8208 31.9844 46.5546 31.664 47.2117C31.3436 47.8688 30.8453 48.4229 30.2258 48.811C29.6063 49.1992 28.8903 49.4059 28.1593 49.4076C27.8305 49.4074 27.503 49.366 27.1845 49.2842C26.6869 49.1571 26.2192 48.9333 25.8081 48.6255C25.397 48.3177 25.0505 47.9318 24.7886 47.4901C24.5266 47.0484 24.3542 46.5594 24.2812 46.051C24.2082 45.5426 24.2361 45.0248 24.3633 44.5272ZM15.2406 34.8765C15.3429 34.8765 15.444 34.8544 15.5369 34.8117C15.6299 34.7689 15.7124 34.7066 15.779 34.6289C15.8455 34.5512 15.8944 34.4601 15.9224 34.3617C15.9504 34.2633 15.9567 34.16 15.941 34.059C15.8974 33.7804 15.8615 33.4987 15.8341 33.2215C15.8158 33.0346 15.724 32.8627 15.5789 32.7436C15.4339 32.6244 15.2474 32.5678 15.0606 32.5861C14.8737 32.6045 14.7018 32.6963 14.5827 32.8414C14.4635 32.9864 14.4069 33.1729 14.4252 33.3597C14.455 33.6639 14.4944 33.9729 14.5424 34.2781C14.5685 34.4447 14.6531 34.5965 14.7811 34.7061C14.9091 34.8158 15.0721 34.8762 15.2406 34.8765ZM16.3692 27.6536C16.5278 27.1248 16.7162 26.6055 16.9337 26.0981C16.9703 26.0127 16.9898 25.9209 16.9909 25.8279C16.9921 25.735 16.9749 25.6427 16.9404 25.5564C16.9059 25.4701 16.8547 25.3914 16.7898 25.3249C16.7249 25.2584 16.6475 25.2053 16.5621 25.1686C16.4767 25.132 16.3849 25.1126 16.2919 25.1114C16.199 25.1103 16.1067 25.1274 16.0204 25.1619C15.9341 25.1964 15.8554 25.2476 15.7889 25.3125C15.7224 25.3774 15.6693 25.4548 15.6326 25.5402C15.3937 26.0971 15.1867 26.6672 15.0129 27.2478C14.9862 27.3368 14.9774 27.4303 14.9868 27.5228C14.9963 27.6152 15.0239 27.7049 15.068 27.7868C15.1121 27.8686 15.172 27.9409 15.244 27.9996C15.3161 28.0583 15.3991 28.1022 15.4881 28.1289C15.5772 28.1555 15.6706 28.1644 15.7631 28.1549C15.8556 28.1454 15.9453 28.1179 16.0271 28.0737C16.1089 28.0296 16.1813 27.9698 16.24 27.8977C16.2987 27.8256 16.3426 27.7427 16.3692 27.6536ZM23.9682 17.326C23.4044 17.5516 22.8551 17.8115 22.3232 18.1044C22.159 18.1952 22.0375 18.3473 21.9855 18.5275C21.9334 18.7078 21.955 18.9013 22.0455 19.0656C22.1359 19.2299 22.2879 19.3516 22.4681 19.4039C22.6482 19.4562 22.8418 19.4349 23.0062 19.3447C23.4871 19.0799 23.9839 18.8449 24.4936 18.6409C24.6679 18.5712 24.8075 18.4351 24.8815 18.2626C24.9555 18.09 24.958 17.8951 24.8883 17.7208C24.8186 17.5464 24.6826 17.4068 24.51 17.3328C24.3374 17.2588 24.1425 17.2563 23.9682 17.326ZM20.4926 19.2949C20.0095 19.6623 19.5488 20.0581 19.1127 20.4801C18.9779 20.6108 18.9004 20.7896 18.8974 20.9774C18.8945 21.1651 18.9662 21.3463 19.0968 21.4812C19.2275 21.616 19.4063 21.6934 19.594 21.6964C19.7818 21.6994 19.963 21.6277 20.0978 21.4971C20.4932 21.1142 20.911 20.7554 21.3491 20.4224C21.4232 20.3662 21.4854 20.2959 21.5323 20.2156C21.5791 20.1353 21.6097 20.0466 21.6223 19.9544C21.6349 19.8623 21.6292 19.7686 21.6056 19.6787C21.582 19.5888 21.5409 19.5044 21.4846 19.4304C21.4284 19.3563 21.3581 19.2941 21.2778 19.2472C21.1975 19.2003 21.1088 19.1697 21.0167 19.1572C20.9245 19.1446 20.8308 19.1503 20.7409 19.1739C20.651 19.1975 20.5666 19.2386 20.4926 19.2949ZM15.0675 31.9166C15.2504 31.9165 15.4262 31.8456 15.558 31.7187C15.6898 31.5918 15.7673 31.4188 15.7743 31.236C15.7959 30.6843 15.8486 30.1343 15.9323 29.5886C15.9465 29.4967 15.9424 29.4029 15.9203 29.3126C15.8983 29.2223 15.8586 29.1373 15.8037 29.0623C15.7487 28.9873 15.6795 28.9239 15.6001 28.8757C15.5206 28.8274 15.4324 28.7953 15.3405 28.7811C15.2487 28.767 15.1549 28.771 15.0646 28.7931C14.9743 28.8152 14.8892 28.8548 14.8143 28.9098C14.7393 28.9647 14.6759 29.0339 14.6276 29.1134C14.5794 29.1928 14.5472 29.281 14.5331 29.3729C14.4411 29.9719 14.3833 30.5758 14.3599 31.1814C14.3563 31.2743 14.371 31.3669 14.4032 31.4541C14.4354 31.5413 14.4845 31.6213 14.5477 31.6895C14.6108 31.7577 14.6868 31.8128 14.7712 31.8517C14.8557 31.8905 14.9469 31.9124 15.0398 31.9159C15.0492 31.9166 15.0585 31.9166 15.0675 31.9166ZM17.84 24.3346C18.1255 23.863 18.438 23.4084 18.776 22.973C18.8331 22.8996 18.8751 22.8157 18.8998 22.7261C18.9244 22.6364 18.9311 22.5428 18.9196 22.4506C18.908 22.3583 18.8784 22.2692 18.8324 22.1884C18.7865 22.1076 18.725 22.0367 18.6516 21.9796C18.5782 21.9225 18.4943 21.8805 18.4046 21.8559C18.315 21.8312 18.2214 21.8245 18.1291 21.8361C18.0369 21.8476 17.9478 21.8772 17.867 21.9232C17.7862 21.9692 17.7152 22.0306 17.6582 22.104C17.2862 22.5828 16.9425 23.0829 16.6288 23.6018C16.5807 23.6813 16.5487 23.7695 16.5347 23.8614C16.5207 23.9533 16.5249 24.0471 16.5471 24.1373C16.5693 24.2276 16.6091 24.3126 16.6641 24.3875C16.7192 24.4623 16.7885 24.5257 16.868 24.5738C16.9475 24.6219 17.0358 24.6539 17.1276 24.6679C17.2195 24.6819 17.3133 24.6777 17.4035 24.6555C17.4938 24.6333 17.5788 24.5935 17.6537 24.5384C17.7286 24.4834 17.7919 24.4141 17.84 24.3346ZM26.9709 16.4809C26.6657 16.5334 26.3594 16.5956 26.0604 16.6662C25.8916 16.7061 25.7434 16.8066 25.6438 16.9486C25.5442 17.0907 25.5002 17.2643 25.5202 17.4367C25.5402 17.609 25.6228 17.768 25.7523 17.8834C25.8817 17.9989 26.0491 18.0628 26.2226 18.063C26.2776 18.0631 26.3325 18.0567 26.386 18.0439C26.656 17.9803 26.9332 17.924 27.2101 17.8766C27.3952 17.8449 27.5601 17.741 27.6685 17.5877C27.777 17.4344 27.8201 17.2443 27.7884 17.0592C27.7567 16.8741 27.6527 16.7092 27.4994 16.6007C27.3461 16.4923 27.156 16.4492 26.9709 16.4809ZM46.9112 58.5914C46.9607 58.5914 47.01 58.5863 47.0585 58.5762C47.3585 58.5126 47.6609 58.44 47.9572 58.3598C48.0469 58.3356 48.131 58.2939 48.2046 58.2371C48.2783 58.1804 48.34 58.1097 48.3863 58.0291C48.4326 57.9485 48.4626 57.8596 48.4746 57.7674C48.4865 57.6752 48.4802 57.5816 48.456 57.4918C48.4317 57.4021 48.39 57.318 48.3333 57.2444C48.2766 57.1707 48.2059 57.109 48.1253 57.0627C48.0447 57.0164 47.9558 56.9864 47.8636 56.9744C47.7714 56.9625 47.6777 56.9688 47.588 56.9931C47.317 57.066 47.0401 57.1327 46.7653 57.1908C46.5941 57.227 46.4424 57.3253 46.3394 57.4667C46.2364 57.6082 46.1895 57.7827 46.2076 57.9568C46.2257 58.1308 46.3076 58.292 46.4376 58.4092C46.5675 58.5264 46.7362 58.5913 46.9112 58.5914ZM55.3415 53.0287C55.4139 53.087 55.4971 53.1304 55.5864 53.1565C55.6756 53.1826 55.7691 53.1909 55.8615 53.1808C55.9539 53.1708 56.0434 53.1426 56.125 53.0979C56.2065 53.0533 56.2784 52.993 56.3366 52.9205C56.7162 52.4481 57.0677 51.9539 57.3895 51.4404C57.4883 51.2813 57.52 51.0895 57.4777 50.9071C57.4353 50.7246 57.3224 50.5664 57.1637 50.467C57.005 50.3676 56.8133 50.3352 56.6307 50.3768C56.4481 50.4184 56.2894 50.5306 56.1894 50.689C55.8972 51.1554 55.578 51.6044 55.2333 52.0336C55.175 52.106 55.1316 52.1892 55.1055 52.2784C55.0794 52.3677 55.0711 52.4612 55.0812 52.5536C55.0912 52.646 55.1194 52.7355 55.164 52.8171C55.2087 52.8986 55.269 52.9705 55.3415 53.0287ZM53.0477 55.8272C53.2003 55.8272 53.3488 55.7778 53.4708 55.6861C53.9556 55.3237 54.4195 54.934 54.86 54.5188C54.9952 54.3897 55.0738 54.2123 55.0787 54.0254C55.0836 53.8386 55.0143 53.6573 54.8861 53.5213C54.7578 53.3853 54.581 53.3055 54.3941 53.2994C54.2072 53.2933 54.0256 53.3614 53.8887 53.4888C53.4873 53.8669 53.0648 54.222 52.6233 54.5524C52.5042 54.6414 52.4161 54.7657 52.3717 54.9076C52.3272 55.0495 52.3286 55.2018 52.3756 55.3429C52.4225 55.484 52.5128 55.6067 52.6334 55.6936C52.7541 55.7806 52.899 55.8273 53.0477 55.8272ZM59.5119 45.6735C59.5971 45.0718 59.6444 44.4653 59.6532 43.8577C59.6559 43.67 59.5839 43.4889 59.453 43.3542C59.3221 43.2196 59.1431 43.1424 58.9554 43.1398H58.945C58.759 43.1399 58.5806 43.2131 58.4482 43.3437C58.3158 43.4743 58.2401 43.6517 58.2374 43.8377C58.2297 44.3854 58.1871 44.932 58.1099 45.4743C58.0835 45.6603 58.132 45.8491 58.2448 45.9992C58.3576 46.1493 58.5254 46.2485 58.7113 46.2749C58.8972 46.3013 59.086 46.2528 59.2362 46.14C59.3863 46.0272 59.4855 45.8594 59.5119 45.6735ZM49.7422 57.712C49.8357 57.712 49.9283 57.6933 50.0146 57.6571C50.5721 57.4244 51.1163 57.1609 51.6447 56.8679C51.8079 56.7763 51.9282 56.6238 51.9793 56.4437C52.0304 56.2636 52.0081 56.0706 51.9172 55.9069C51.8264 55.7433 51.6744 55.6222 51.4946 55.5703C51.3147 55.5183 51.1216 55.5398 50.9575 55.6298C50.4751 55.8975 49.9782 56.1381 49.4691 56.3505C49.3181 56.4136 49.1936 56.527 49.1168 56.6716C49.04 56.8161 49.0156 56.9827 49.0478 57.1432C49.08 57.3036 49.1667 57.448 49.2933 57.5517C49.4199 57.6554 49.5785 57.7121 49.7422 57.712ZM58.4109 49.5137C58.6557 48.9583 58.8663 48.3884 59.0414 47.8072C59.0952 47.6275 59.0754 47.4339 58.9865 47.2687C58.8976 47.1036 58.7468 46.9805 58.5672 46.9265C58.3876 46.8725 58.1939 46.8919 58.0287 46.9806C57.8634 47.0692 57.7401 47.2198 57.6857 47.3993C57.5271 47.9249 57.3367 48.4403 57.1154 48.9427C57.0773 49.0279 57.0563 49.1197 57.0538 49.213C57.0513 49.3063 57.0673 49.3991 57.1008 49.4862C57.1343 49.5733 57.1847 49.6529 57.2491 49.7205C57.3135 49.788 57.3906 49.8422 57.476 49.8798C57.5614 49.9174 57.6533 49.9378 57.7466 49.9398C57.8399 49.9417 57.9327 49.9252 58.0196 49.8912C58.1065 49.8572 58.1858 49.8063 58.253 49.7415C58.3201 49.6768 58.3738 49.5993 58.4109 49.5137ZM57.9675 41.0371C58.0248 41.3133 58.0732 41.5919 58.1119 41.8646C58.1383 42.0506 58.2373 42.2184 58.3874 42.3313C58.5375 42.4441 58.7262 42.4927 58.9121 42.4664C59.0981 42.4401 59.2659 42.341 59.3788 42.191C59.4916 42.0409 59.5402 41.8521 59.5139 41.6662C59.4711 41.3638 59.4172 41.0558 59.3542 40.7502C59.3162 40.5663 59.2067 40.4051 59.0497 40.302C58.8928 40.1988 58.7013 40.1622 58.5174 40.2003C58.3335 40.2383 58.1722 40.3479 58.0691 40.5048C57.966 40.6618 57.9294 40.8532 57.9675 41.0371Z" fill="white"/>
<path d="M53.2263 38.8372L51.3459 36.2029C51.9564 35.2029 52.4072 34.1138 52.6819 32.9748L55.8747 32.4429C56.0401 32.4154 56.1903 32.3301 56.2987 32.2023C56.407 32.0744 56.4665 31.9123 56.4665 31.7446V28.8059C56.4665 28.6383 56.407 28.4761 56.2987 28.3482C56.1903 28.2204 56.0401 28.1351 55.8748 28.1076L52.6819 27.5756C52.4072 26.4367 51.9564 25.3475 51.3459 24.3475L53.2263 21.7133C53.3236 21.5769 53.3694 21.4104 53.3556 21.2435C53.3417 21.0765 53.2691 20.9199 53.1506 20.8014L51.0743 18.7251C50.9558 18.6065 50.7992 18.5339 50.6322 18.52C50.4652 18.5061 50.2987 18.552 50.1624 18.6494L47.5281 20.5297C46.5281 19.9193 45.439 19.4685 44.3001 19.1938L43.7681 16.0009C43.7406 15.8356 43.6553 15.6854 43.5275 15.577C43.3996 15.4687 43.2374 15.4092 43.0698 15.4092H40.1311C39.9634 15.4092 39.8013 15.4687 39.6734 15.577C39.5456 15.6854 39.4603 15.8356 39.4328 16.0009L38.9008 19.1938C37.7619 19.4685 36.6727 19.9193 35.6727 20.5298L33.0385 18.6494C32.9021 18.552 32.7356 18.5062 32.5687 18.52C32.4017 18.5339 32.245 18.6065 32.1266 18.7251L30.0503 20.8014C29.9318 20.9199 29.8592 21.0765 29.8453 21.2435C29.8315 21.4105 29.8773 21.5769 29.9746 21.7133L31.8549 24.3476C31.2444 25.3476 30.7937 26.4367 30.519 27.5756L27.3261 28.1076C27.1608 28.1351 27.0106 28.2204 26.9022 28.3482C26.7939 28.4761 26.7344 28.6383 26.7344 28.8059V31.7446C26.7344 31.9122 26.7939 32.0744 26.9022 32.2023C27.0106 32.3301 27.1608 32.4154 27.3261 32.4429L30.519 32.9749C30.5761 33.2112 30.6451 33.4432 30.7169 33.6742L32.1443 34.0388C32.6314 34.1633 33.0585 34.4565 33.3497 34.8663C33.6409 35.2762 33.7773 35.776 33.7346 36.2769L33.6265 37.5441C33.837 37.6889 34.0414 37.842 34.2396 38.0032L35.4263 37.5431C35.895 37.3615 36.4129 37.352 36.8879 37.5162C37.3629 37.6805 37.7643 38.0078 38.0208 38.4401L39.0751 40.2178C39.269 40.5457 39.3711 40.9198 39.3705 41.3008C39.3699 41.6818 39.2668 42.0556 39.0718 42.3829L39.4328 44.5496C39.4603 44.7149 39.5456 44.8651 39.6734 44.9735C39.8013 45.0819 39.9635 45.1413 40.1311 45.1413H43.0698C43.2374 45.1413 43.3996 45.0818 43.5275 44.9735C43.6553 44.8651 43.7406 44.7149 43.7681 44.5496L44.3001 41.3567C45.439 41.082 46.5282 40.6312 47.5282 40.0207L50.1624 41.9011C50.2987 41.9987 50.4652 42.0446 50.6322 42.0308C50.7993 42.0169 50.9559 41.9441 51.0743 41.8254L53.1506 39.7491C53.2691 39.6306 53.3417 39.474 53.3556 39.307C53.3694 39.14 53.3236 38.9736 53.2263 38.8372ZM41.6004 35.9385C40.4804 35.9385 39.3854 35.6064 38.4541 34.9841C37.5228 34.3618 36.7969 33.4773 36.3683 32.4425C35.9396 31.4077 35.8275 30.269 36.046 29.1704C36.2645 28.0718 36.8039 27.0627 37.5959 26.2707C38.3879 25.4787 39.397 24.9393 40.4956 24.7208C41.5942 24.5023 42.7329 24.6144 43.7677 25.0431C44.8025 25.4717 45.687 26.1976 46.3093 27.1289C46.9316 28.0602 47.2637 29.1552 47.2637 30.2753C47.262 31.7767 46.6648 33.2162 45.6031 34.2779C44.5414 35.3396 43.1019 35.9368 41.6004 35.9385Z" fill="white"/>
</g>
<defs>
<linearGradient id="paint0_linear_1173_44" x1="0" y1="0" x2="74.4944" y2="0.501132" gradientUnits="userSpaceOnUse">
<stop stop-color="#AE6BFF"/>
<stop offset="1" stop-color="#EF87DF"/>
</linearGradient>
<clipPath id="clip0_1173_44">
<rect width="45.3061" height="45.3061" fill="white" transform="translate(14.3438 14.3472)"/>
</clipPath>
</defs>
</svg>
