<svg width="74" height="74" viewBox="0 0 74 74" fill="none" xmlns="http://www.w3.org/2000/svg">
<circle cx="37" cy="37" r="37" fill="url(#paint0_linear_1173_108)"/>
<g clip-path="url(#clip0_1173_108)">
<path fill-rule="evenodd" clip-rule="evenodd" d="M17.9707 42.3313C17.9082 42.8628 17.8769 43.3631 17.8769 43.8946C17.8769 47.1464 19.1589 50.2419 21.4414 52.5244C23.7552 54.8381 26.8506 56.1201 30.1024 56.1201C33.3542 56.1201 36.4496 54.8381 38.7634 52.5244C41.0459 50.2419 42.3279 47.1464 42.3279 43.8946C42.3279 43.3631 42.2966 42.8628 42.2341 42.3313H17.9707ZM36.1682 17.1612V29.3554C38.9197 30.5123 41.296 32.4196 42.9845 34.8272C44.798 37.3911 45.861 40.5178 45.861 43.8946C45.861 48.2408 44.0788 52.1804 41.2335 55.0257C38.3882 57.8711 34.4485 59.6533 30.1024 59.6533C25.7563 59.6533 21.8166 57.8711 18.9713 55.0257C16.0947 52.1804 14.3438 48.2408 14.3438 43.8946C14.3438 40.5178 15.4068 37.3911 17.2203 34.8272C18.9088 32.4196 21.2538 30.5123 24.0366 29.3554V17.1612H22.2543V14.3472H37.9192V17.1612H36.1682ZM29.4458 29.4805C30.0399 29.4805 30.5401 29.9495 30.5401 30.5748C30.5401 31.1689 30.0399 31.6692 29.4458 31.6692C28.8204 31.6692 28.3514 31.1689 28.3514 30.5748C28.3514 29.9495 28.8204 29.4805 29.4458 29.4805ZM37.8254 21.3197C38.5445 21.1947 39.2949 21.1634 40.0141 21.1947L40.3893 19.7877C40.4831 19.4124 40.8583 19.1936 41.2335 19.3186L43.1721 19.8189C43.5473 19.944 43.7661 20.3192 43.6411 20.6631L43.2659 22.1014C44.2977 22.6017 45.2357 23.3208 46.0174 24.1963L47.2993 23.4772C47.612 23.2896 48.0498 23.4146 48.2374 23.7273L49.2379 25.4783C49.4255 25.7909 49.3004 26.2287 48.9878 26.4163L47.7058 27.1354C48.081 28.2611 48.2374 29.4492 48.1436 30.5748L49.5506 30.95C49.9258 31.0751 50.1446 31.4503 50.0508 31.7942L49.5193 33.7641C49.4255 34.108 49.0503 34.3269 48.6751 34.2331L47.2681 33.8579C46.8616 34.6708 46.3301 35.4212 45.6734 36.1091C45.267 35.3274 44.8292 34.6083 44.329 33.8891C44.2352 33.7641 44.1414 33.6077 44.0476 33.4827C45.4233 31.6692 45.6422 29.1365 44.454 27.0416C43.0783 24.6966 40.3268 23.6335 37.8254 24.3214V21.3197ZM51.3641 17.255L52.1145 16.8485L52.8649 16.4421L53.928 17.7553C54.397 17.6928 54.866 17.724 55.335 17.8178L56.4919 16.5984L57.211 17.0361L57.9614 17.5052L57.3361 19.0998C57.4924 19.2561 57.6175 19.475 57.7426 19.6626C57.8364 19.8815 57.9302 20.1003 57.9927 20.3192L59.6499 20.6944L59.6186 21.5699L59.5873 22.4454L57.8989 22.6955C57.7426 23.1332 57.4924 23.5397 57.1798 23.8837L57.6488 25.4783L56.8984 25.8848L56.1167 26.2912L55.0536 24.978C54.5846 25.0718 54.1156 25.0405 53.6778 24.9467L52.521 26.1662L51.7705 25.6971L51.0514 25.2594L51.6455 23.6648C51.5204 23.4772 51.3953 23.2896 51.2703 23.0707C51.1765 22.8831 51.0827 22.6642 51.0201 22.4454L49.363 22.0389L49.3942 21.1947L49.4255 20.3192L51.1139 20.0691C51.2703 19.6313 51.5204 19.2248 51.8331 18.8809L51.3641 17.255ZM47.8621 39.5172H55.5851V41.1431H47.8621V39.5172ZM47.8621 42.9254H59.6499V44.5512H47.8621V42.9254ZM53.6778 19.8189C54.5533 19.3499 55.6164 19.6939 56.0541 20.5381C56.5232 21.4135 56.1792 22.4766 55.335 22.9456C54.4595 23.3834 53.3964 23.0707 52.9274 22.1952C52.4897 21.351 52.8024 20.2879 53.6778 19.8189ZM28.6954 36.2967C29.8523 36.2967 30.7903 37.2035 30.7903 38.3603C30.7903 39.5172 29.8523 40.424 28.6954 40.424C27.5385 40.424 26.6317 39.5172 26.6317 38.3603C26.6317 37.2035 27.5385 36.2967 28.6954 36.2967ZM33.8857 18.2556H26.2878V30.1371V30.9188L25.5374 31.2002C22.911 32.1382 20.6597 33.8891 19.0651 36.1404C17.533 38.3291 16.6263 41.0181 16.6263 43.8946C16.6263 47.6154 18.1271 50.9923 20.5659 53.4311C23.0048 55.87 26.3816 57.3708 30.1024 57.3708C33.8232 57.3708 37.2 55.87 39.6389 53.4311C42.0777 50.9923 43.5785 47.6154 43.5785 43.8946C43.5785 41.0181 42.6718 38.3291 41.1397 36.1404C39.5451 33.8891 37.2938 32.1382 34.6674 31.2002L33.8857 30.9188V30.1371V18.2556ZM25.5061 45.3017C26.2565 45.3017 26.8819 45.8957 26.8819 46.6461C26.8819 47.3966 26.2565 47.9906 25.5061 47.9906C24.787 47.9906 24.1616 47.3966 24.1616 46.6461C24.1616 45.8957 24.787 45.3017 25.5061 45.3017ZM34.4485 43.3631C35.324 43.3631 36.0119 44.0822 36.0119 44.9577C36.0119 45.8332 35.324 46.5523 34.4485 46.5523C33.5418 46.5523 32.8539 45.8332 32.8539 44.9577C32.8539 44.0822 33.5418 43.3631 34.4485 43.3631ZM32.4162 50.492C33.0102 50.492 33.5105 50.961 33.5105 51.5551C33.5105 52.1492 33.0102 52.6494 32.4162 52.6494C31.8221 52.6494 31.3531 52.1492 31.3531 51.5551C31.3531 50.961 31.8221 50.492 32.4162 50.492Z" fill="white"/>
</g>
<defs>
<linearGradient id="paint0_linear_1173_108" x1="0" y1="0" x2="74.4944" y2="0.501132" gradientUnits="userSpaceOnUse">
<stop stop-color="#AE6BFF"/>
<stop offset="1" stop-color="#EF87DF"/>
</linearGradient>
<clipPath id="clip0_1173_108">
<rect width="45.3061" height="45.3061" fill="white" transform="translate(14.3438 14.3472)"/>
</clipPath>
</defs>
</svg>
