<svg width="74" height="74" viewBox="0 0 74 74" fill="none" xmlns="http://www.w3.org/2000/svg">
<circle cx="37" cy="37" r="37" fill="url(#paint0_linear_1173_54)"/>
<path d="M55.1232 36.4511V30.8221L51.485 30.1357C51.1418 28.6255 50.524 27.1153 49.7002 25.811L51.8282 22.7906L47.8468 18.8092L44.8264 20.9372C43.5221 20.1134 42.0806 19.5643 40.5704 19.1524L39.8839 15.5142H34.255L33.6371 19.1524C32.0583 19.4956 30.6854 20.1134 29.3125 20.9372L26.2921 18.8092L22.3106 22.7906L24.4386 25.811C23.6149 27.1153 22.9971 28.5568 22.6538 30.1357L19.0156 30.8221V36.4511L22.6538 37.0689C22.9971 38.6477 23.6149 40.0207 24.4386 41.3936L22.3106 44.414L26.2921 48.3954L29.3125 46.2674C29.5184 46.4047 29.7243 46.4733 29.9303 46.6106C28.9006 40.2952 25.2624 39.7461 25.2624 33.568C25.2624 30.3416 26.5666 27.3212 28.9006 25.0559C36.2457 17.9854 48.4646 22.9965 48.8765 33.0188C49.1511 39.4028 45.3069 40.2266 44.2772 46.6106C44.4832 46.542 44.6891 46.4047 44.8264 46.2674L47.8468 48.3954L51.8282 44.414L49.7002 41.3936C50.524 40.0893 51.1418 38.6477 51.485 37.0689L55.1232 36.4511Z" fill="white"/>
<path d="M36.585 30.4102C36.0358 30.4788 35.6926 30.6161 35.3494 30.8907C35.0748 31.1653 34.9375 31.4398 34.9375 31.8517C34.9375 32.2636 35.0748 32.5382 35.2807 32.7441C35.4867 32.95 35.9672 33.156 36.585 33.3619V30.4102ZM39.5368 37.412C39.5368 37.0001 39.3995 36.7256 39.1249 36.451C38.8503 36.245 38.3698 35.9705 37.6833 35.7645V38.8536C38.2325 38.7849 38.6444 38.6476 38.9876 38.3731C39.3308 38.1671 39.5368 37.8239 39.5368 37.412Z" fill="white"/>
<path d="M42.9683 50.3862C42.8996 48.876 42.7623 46.4734 44.0666 43.3157C45.5768 39.4029 48.0481 38.03 47.7735 33.1562C47.4989 27.6645 42.9683 23.0653 37.408 22.8593C31.2299 22.6534 26.2188 27.5272 26.2188 33.6367C26.2188 40.5012 31.0926 39.6775 31.0926 50.3862H31.0239C30.2002 50.3862 29.5137 51.0727 29.5137 51.8964C29.5137 52.7202 30.2002 53.4066 31.0239 53.4066H31.6418C30.8867 53.4066 30.2688 54.0244 30.2688 54.7795C30.2688 55.5346 30.8867 56.1525 31.6418 56.1525H32.3969C31.779 56.1525 31.2299 56.7016 31.2299 57.3194C31.2299 57.9372 31.779 58.4864 32.3969 58.4864H41.5267C42.1445 58.4864 42.6937 57.9372 42.6937 57.3194C42.6937 56.7016 42.1445 56.1525 41.5267 56.1525H42.2818C43.0369 56.1525 43.6547 55.5346 43.6547 54.7795C43.6547 54.0244 43.0369 53.4066 42.2818 53.4066H42.8996C43.7234 53.4066 44.4098 52.7202 44.4098 51.8964C44.4785 51.0727 43.792 50.3862 42.9683 50.3862ZM33.7698 34.3231C33.152 33.8426 32.8774 33.0875 32.8774 32.0578C32.8774 31.0968 33.2206 30.2731 33.9071 29.5866C34.5935 28.9688 35.4859 28.6256 36.6529 28.5569V27.6645H37.7512V28.5569C38.9868 28.6256 40.2225 29.1061 41.3208 29.8612L40.2225 31.44C39.4674 30.8909 38.6436 30.5476 37.7512 30.479V33.7053H37.8199C39.1241 33.9799 40.0852 34.4604 40.7716 34.941C41.3894 35.4901 41.7327 36.2452 41.7327 37.2749C41.7327 38.3046 41.3894 39.1283 40.6343 39.7461C39.9479 40.364 38.9868 40.7072 37.8199 40.7758V42.0115H36.7215V40.7758C35.1427 40.6385 33.7011 39.9521 32.4655 38.9224L33.7011 37.4122C34.6622 38.2359 35.6918 38.7851 36.6529 38.9224V35.5588C35.3486 35.2155 34.3876 34.8037 33.7698 34.3231Z" fill="white"/>
<defs>
<linearGradient id="paint0_linear_1173_54" x1="0" y1="0" x2="74.4944" y2="0.501132" gradientUnits="userSpaceOnUse">
<stop stop-color="#AE6BFF"/>
<stop offset="1" stop-color="#EF87DF"/>
</linearGradient>
</defs>
</svg>
