<svg width="74" height="74" viewBox="0 0 74 74" fill="none" xmlns="http://www.w3.org/2000/svg">
<circle cx="37" cy="37" r="37" fill="url(#paint0_linear_1173_71)"/>
<path d="M51.9097 31.9031C52.2873 32.2806 52.8536 32.2806 53.2312 31.9031L56.8179 28.5051C58.3281 26.9949 58.3281 24.7296 56.8179 23.2194L51.1546 17.5561C49.6444 16.0459 47.3791 16.0459 45.8689 17.5561L42.471 20.9541C42.0934 21.3317 42.0934 21.898 42.471 22.2755L51.9097 31.9031ZM47.9455 37L50.5883 34.3572C50.9659 33.9796 50.9659 33.4133 50.5883 33.0357L47.1904 29.6378C46.8128 29.2602 46.2465 29.2602 45.8689 29.6378L27.9353 47.5714C27.5577 47.949 27.5577 48.5153 27.9353 48.8929L28.124 49.0817L29.4455 49.8368V52.2908L24.9148 53.6123L20.3842 49.0817L21.7057 44.551H24.1597L24.9148 46.0612C25.1036 46.25 25.2924 46.4388 25.67 46.6276C25.8587 46.6276 26.2363 46.4388 26.2363 46.4388L44.1699 28.5051C44.5475 28.1276 44.5475 27.5612 44.1699 27.1837L40.772 23.7857C40.5832 23.597 40.3944 23.597 40.0169 23.4082C39.8281 23.4082 39.4506 23.597 39.2618 23.7857L36.9965 26.2398L27.3689 16.6123C26.9914 16.2347 26.4251 16.2347 26.0475 16.6123L16.6087 26.051C16.2312 26.4286 16.2312 26.9949 16.6087 27.3725L18.1189 28.8827C18.4965 29.2602 19.0628 29.2602 19.4404 28.8827L23.2159 25.1072C23.5934 24.7296 24.1597 24.7296 24.5373 25.1072C24.9148 25.4847 24.9148 26.051 24.5373 26.4286L20.7618 30.2041C20.3842 30.5817 20.3842 31.148 20.7618 31.5255L21.8944 32.6582C22.272 33.0357 22.8383 33.0357 23.2159 32.6582L26.9914 28.8827C27.3689 28.5051 27.9353 28.5051 28.3128 28.8827C28.6904 29.2602 28.6904 29.8265 28.3128 30.2041L24.5373 33.9796C24.1597 34.3572 24.1597 34.9235 24.5373 35.301L26.2363 37L20.1955 42.8521C20.0067 43.0408 20.0067 43.0408 20.0067 43.2296L18.3077 48.8929L16.0424 56.4439C15.8536 57.0102 16.2312 57.3878 16.6087 57.5765H17.1751L24.7261 55.5L30.3893 53.801H30.7669L36.8077 47.7602L38.5067 49.4592C38.8842 49.8368 39.4506 49.8368 39.8281 49.4592L43.6036 45.6837C43.9812 45.3061 44.5475 45.3061 44.9251 45.6837C45.3026 46.0612 45.3026 46.6276 44.9251 47.0051L41.1495 50.7806C40.772 51.1582 40.772 51.7245 41.1495 52.1021L42.2822 53.2347C42.6597 53.6123 43.2261 53.6123 43.6036 53.2347L47.3791 49.4592C47.7567 49.0817 48.323 49.0817 48.7006 49.4592C49.0781 49.8368 49.0781 50.4031 48.7006 50.7806L44.9251 54.5561C44.5475 54.9337 44.5475 55.5 44.9251 55.8776L46.4353 57.3878C46.8128 57.7653 47.3791 57.7653 47.7567 57.3878L57.1955 47.949C57.573 47.5714 57.573 47.0051 57.1955 46.6276L47.9455 37Z" fill="white"/>
<defs>
<linearGradient id="paint0_linear_1173_71" x1="0" y1="0" x2="74.4944" y2="0.501132" gradientUnits="userSpaceOnUse">
<stop stop-color="#AE6BFF"/>
<stop offset="1" stop-color="#EF87DF"/>
</linearGradient>
</defs>
</svg>
