<svg width="74" height="74" viewBox="0 0 74 74" fill="none" xmlns="http://www.w3.org/2000/svg">
<circle cx="37" cy="37" r="37" fill="url(#paint0_linear_1173_153)"/>
<g clip-path="url(#clip0_1173_153)">
<path d="M54.1258 30.6289C54.1258 32.5403 52.4268 34.0977 50.3739 34.0977C50.3031 34.5224 50.0199 34.8056 49.5952 35.018V35.3719C49.5952 35.7967 49.5244 36.2214 49.312 36.5754C47.2591 40.4689 45.9849 41.1768 42.0914 42.3802C41.3835 42.5926 40.6048 42.7342 39.8969 42.8757C39.4013 44.5039 36.7821 44.15 36.7821 42.5218C36.7821 41.1768 38.5518 40.5397 39.5429 41.5307C40.6048 41.2476 41.6666 41.106 42.6577 40.8228C45.7017 39.8317 45.7725 39.5486 47.7546 36.4338C47.967 36.1506 48.0378 35.7967 48.0378 35.4427V34.8764C47.6131 34.5932 47.3299 34.2393 47.3299 33.7437C47.3299 27.5849 46.9759 27.0186 47.8962 26.3107C47.4715 24.0454 46.1972 21.9217 44.6398 20.5059C43.224 19.1608 41.525 18.2405 39.8261 17.745C35.3662 16.7539 31.3312 18.099 28.9951 20.3643C27.4377 21.7801 26.305 24.1162 25.8803 26.3107C26.2342 26.5939 26.4466 26.9478 26.4466 27.3726V33.6729C26.4466 34.4516 25.7387 35.0888 24.8892 35.0888C24.1813 35.0888 23.615 34.664 23.4734 34.0269C21.4204 33.9561 19.7215 32.4695 19.7215 30.5581C19.7215 28.6468 21.4204 27.0894 23.4734 27.0894C23.5442 26.7354 23.8273 26.3815 24.1813 26.2399C23.4026 17.6742 35.5078 11.0199 44.3567 16.6124C45.3477 17.2495 46.268 18.0282 46.9759 18.8069C47.6838 19.5856 48.2502 20.4351 48.6749 21.2138C49.0997 21.9925 49.312 22.7712 49.5244 23.4791C49.7368 24.3286 49.8076 25.3196 49.7368 26.1691C50.0907 26.3815 50.3739 26.6647 50.4447 27.0186C52.4976 27.1602 54.1258 28.7176 54.1258 30.6289ZM33.3841 44.7871C32.0391 42.9465 31.402 42.5926 29.2782 43.3005C26.8006 44.15 24.2521 45.0703 21.8452 46.0613C19.7215 46.9816 18.4472 48.6098 18.5888 51.0875C18.6596 52.2201 18.5888 53.3528 18.5888 54.4854C18.5888 57.9542 20.0754 59.4408 23.5442 59.4408H50.5863C53.8426 59.4408 55.3293 57.8834 55.3293 54.627C55.3293 53.4236 55.2585 52.2909 55.3293 51.0875C55.4708 48.6806 54.2674 47.0524 52.2145 46.1321C49.8076 45.0703 47.3299 44.15 44.8522 43.3005C42.8701 42.6634 41.6666 43.2297 40.3924 44.9995C39.3305 46.4861 38.2687 48.0435 36.9944 49.7425C35.7202 47.9727 34.5168 46.3445 33.3841 44.7871ZM43.5072 21.8509C40.18 19.1608 36.4989 19.3024 32.6762 20.5766C30.1277 21.4261 28.5703 23.4083 28.2872 25.886C27.7208 30.6289 28.8535 35.0888 32.393 38.5575C34.9415 41.0352 38.9766 41.0352 41.5958 38.5575C44.7106 35.6551 45.6309 31.9032 45.8433 29.0007C45.9141 25.6028 45.4185 23.4083 43.5072 21.8509Z" fill="white"/>
</g>
<defs>
<linearGradient id="paint0_linear_1173_153" x1="0" y1="0" x2="74.4944" y2="0.501132" gradientUnits="userSpaceOnUse">
<stop stop-color="#AE6BFF"/>
<stop offset="1" stop-color="#EF87DF"/>
</linearGradient>
<clipPath id="clip0_1173_153">
<rect width="45.3061" height="45.3061" fill="white" transform="translate(14.3438 14.3472)"/>
</clipPath>
</defs>
</svg>
