<svg width="74" height="74" viewBox="0 0 74 74" fill="none" xmlns="http://www.w3.org/2000/svg">
<circle cx="37" cy="37" r="37" fill="url(#paint0_linear_1173_20)"/>
<path d="M36.9962 15.0195C24.8555 15.0195 15.0156 24.8595 15.0156 37.0001C15.0156 49.1407 24.8555 58.9806 36.9962 58.9806C49.1368 58.9806 58.9767 49.1407 58.9767 37.0001C58.9767 24.8595 49.1368 15.0195 36.9962 15.0195ZM33.1735 46.3091C33.3858 46.5214 33.5274 46.8046 33.5274 47.1232C33.5274 47.4417 33.4212 47.7249 33.1735 47.9373C32.9611 48.1496 32.6425 48.2912 32.3594 48.2912C32.0762 48.2912 31.7577 48.185 31.5453 47.9373L29.8817 46.2737L28.1827 47.9727C27.7226 48.4328 26.9793 48.4328 26.5545 47.9727C26.3422 47.7603 26.2006 47.4771 26.2006 47.1586C26.2006 46.84 26.3068 46.5568 26.5545 46.3445L28.2181 44.6809L26.5545 43.0173C26.0944 42.5572 26.0944 41.8139 26.5545 41.3537C27.0147 40.8936 27.758 40.8936 28.1827 41.3537L29.8463 43.0173L31.5099 41.3537C31.97 40.8936 32.7133 40.8936 33.1735 41.3537C33.6336 41.8139 33.6336 42.5572 33.1735 43.0173L31.5099 44.6809L33.1735 46.3091ZM33.3858 31.5492H31.0143V33.9207C31.0143 34.5578 30.4834 35.0887 29.8463 35.0887C29.2092 35.0887 28.6783 34.5578 28.6783 33.9207V31.5492H26.3068C25.6696 31.5492 25.1387 31.0183 25.1387 30.3811C25.1387 29.744 25.6696 29.2131 26.3068 29.2131H28.6783V26.8416C28.6783 26.2045 29.2092 25.6735 29.8463 25.6735C30.4834 25.6735 31.0143 26.2045 31.0143 26.8416V29.2131H33.3858C34.023 29.2131 34.5539 29.744 34.5539 30.3811C34.5539 31.0183 34.0584 31.5492 33.3858 31.5492ZM47.6502 47.5833H40.5711C39.934 47.5833 39.4031 47.0524 39.4031 46.4153C39.4031 45.7781 39.934 45.2472 40.5711 45.2472H47.6502C48.2873 45.2472 48.8182 45.7781 48.8182 46.4153C48.8182 47.0524 48.2873 47.5833 47.6502 47.5833ZM47.6502 44.0438H40.5711C39.934 44.0438 39.4031 43.5128 39.4031 42.8757C39.4031 42.2386 39.934 41.7077 40.5711 41.7077H47.6502C48.2873 41.7077 48.8182 42.2386 48.8182 42.8757C48.8182 43.5128 48.2873 44.0438 47.6502 44.0438ZM47.6502 31.5492H40.5711C39.934 31.5492 39.4031 31.0183 39.4031 30.3811C39.4031 29.744 39.934 29.2131 40.5711 29.2131H47.6502C48.2873 29.2131 48.8182 29.744 48.8182 30.3811C48.8182 31.0183 48.2873 31.5492 47.6502 31.5492Z" fill="white"/>
<defs>
<linearGradient id="paint0_linear_1173_20" x1="0" y1="0" x2="74.4944" y2="0.501132" gradientUnits="userSpaceOnUse">
<stop stop-color="#AE6BFF"/>
<stop offset="1" stop-color="#EF87DF"/>
</linearGradient>
</defs>
</svg>
