<svg width="140" height="130" viewBox="0 0 140 130" fill="none" xmlns="http://www.w3.org/2000/svg">
<path fill-rule="evenodd" clip-rule="evenodd" d="M100.296 9.22735C90.0482 3.99504 78.8483 -0.206316 67.3977 0.922571C58.7233 1.77775 51.3975 6.62573 44.068 11.4761C42.0687 12.7992 40.0691 14.1224 38.0419 15.3649C36.4455 16.3432 34.8291 17.2956 33.2145 18.2471C25.4983 22.7938 17.8206 27.3179 12.5403 34.5424C5.78531 43.7844 1.53162 54.7912 0.87167 66.2203C0.191978 77.9914 2.84333 89.8832 8.75574 100.084C14.6629 110.275 23.3304 119.197 34.2031 123.726C40.7508 126.454 47.763 125.763 54.8648 125.063C59.0369 124.652 63.2398 124.238 67.3977 124.512C71.7985 124.802 76.2165 125.974 80.5982 127.136C88.3514 129.193 95.9907 131.219 103.219 128.277C113.048 124.277 118.645 114.408 124.003 104.96C124.874 103.425 125.738 101.901 126.613 100.415C126.77 100.149 126.927 99.8831 127.084 99.6168C133.247 89.1593 139.627 78.3354 139.767 66.2203C139.912 53.7442 134.516 41.8207 127.413 31.564C120.629 21.7695 110.906 14.6445 100.296 9.22735ZM69.6956 102C95.9182 102 118.511 87.4914 118.511 61.2688C118.511 35.0461 102.759 22.0923 76.536 22.0923C50.3134 22.0923 23.6788 32.5588 23.6788 58.7814C23.6788 85.004 43.473 102 69.6956 102Z" fill="url(#paint0_linear_1371_46)"/>
<defs>
<linearGradient id="paint0_linear_1371_46" x1="0.767578" y1="0.737793" x2="140.698" y2="1.75199" gradientUnits="userSpaceOnUse">
<stop stop-color="#BE8DFA"/>
<stop offset="1" stop-color="#FBB3F0"/>
</linearGradient>
</defs>
</svg>
