<svg width="143" height="143" viewBox="0 0 143 143" fill="none" xmlns="http://www.w3.org/2000/svg">
<path fill-rule="evenodd" clip-rule="evenodd" d="M61.6055 1.53447C49.381 3.34636 36.9667 6.6532 27.6556 14.7782C20.6021 20.9332 17.2168 29.7398 13.8299 38.5507C12.906 40.9541 11.982 43.3578 10.9834 45.7081C10.1971 47.5589 9.37711 49.3994 8.55801 51.238C4.6436 60.0245 0.748726 68.7671 0.633836 78.377C0.486861 90.6707 3.62759 102.949 10.1747 113.356C16.9176 124.075 26.6492 132.823 38.1786 138.059C49.6978 143.29 62.8396 145.69 75.1721 142.874C82.5989 141.178 88.3012 136.203 94.0763 131.164C97.469 128.204 100.887 125.222 104.694 122.87C108.724 120.381 113.318 118.651 117.875 116.937C125.938 113.902 133.882 110.912 138.371 103.834C144.474 94.2085 143.217 82.0883 142.014 70.4853C141.819 68.5999 141.625 66.7281 141.464 64.8829C141.435 64.5527 141.406 64.2222 141.377 63.8913C140.249 50.9034 139.082 37.4603 131.653 26.7768C124.003 15.7748 111.851 8.7101 99.2449 4.1674C87.2069 -0.170629 74.2619 -0.341433 61.6055 1.53447ZM99.7849 110.822C122.719 94.4768 128.06 62.6341 111.715 39.6997C95.3691 16.7654 63.5264 11.4242 40.5921 27.7699C17.6577 44.1155 12.3165 75.9582 28.6622 98.8926C45.0078 121.827 76.8506 127.168 99.7849 110.822Z" fill="url(#paint0_linear_1371_43)" fill-opacity="0.3"/>
<defs>
<linearGradient id="paint0_linear_1371_43" x1="30.0515" y1="12.8269" x2="110.472" y2="125.664" gradientUnits="userSpaceOnUse">
<stop stop-color="#9F7FF6"/>
<stop offset="1" stop-color="#F1C4ED"/>
</linearGradient>
</defs>
</svg>
